<?xml version="1.0" encoding="UTF-8" standalone="no"?>
<!-- Created with Inkscape (http://www.inkscape.org/) -->

<svg
   xmlns:dc="http://purl.org/dc/elements/1.1/"
   xmlns:cc="http://creativecommons.org/ns#"
   xmlns:rdf="http://www.w3.org/1999/02/22-rdf-syntax-ns#"
   xmlns:svg="http://www.w3.org/2000/svg"
   xmlns="http://www.w3.org/2000/svg"
   xmlns:sodipodi="http://sodipodi.sourceforge.net/DTD/sodipodi-0.dtd"
   xmlns:inkscape="http://www.inkscape.org/namespaces/inkscape"
   width="744.09448819"
   height="1052.3622047"
   id="svg2"
   version="1.1"
   inkscape:version="0.48.5 r10040"
   sodipodi:docname="New document 1">
  <defs
     id="defs4" />
  <sodipodi:namedview
     id="base"
     pagecolor="#ffffff"
     bordercolor="#666666"
     borderopacity="1.0"
     inkscape:pageopacity="0.0"
     inkscape:pageshadow="2"
     inkscape:zoom="0.25"
     inkscape:cx="483.50568"
     inkscape:cy="703.83318"
     inkscape:document-units="px"
     inkscape:current-layer="layer1"
     showgrid="false"
     inkscape:window-width="985"
     inkscape:window-height="785"
     inkscape:window-x="2711"
     inkscape:window-y="112"
     inkscape:window-maximized="0" />
  <metadata
     id="metadata7">
    <rdf:RDF>
      <cc:Work
         rdf:about="">
        <dc:format>image/svg+xml</dc:format>
        <dc:type
           rdf:resource="http://purl.org/dc/dcmitype/StillImage" />
        <dc:title></dc:title>
      </cc:Work>
    </rdf:RDF>
  </metadata>
  <g
     inkscape:label="Layer 1"
     inkscape:groupmode="layer"
     id="layer1">
    <g
       id="g3872"
       transform="matrix(0.93992097,0,0,0.81583284,33.848168,144.44676)">
      <path
         sodipodi:nodetypes="sssssssss"
         inkscape:connector-curvature="0"
         id="rect2985"
         d="m 280,227.65915 c 35.71718,8.54307 50.14421,-7.49837 91.42857,-7.85876 39.28053,-0.34291 120.02565,-11.93988 138.57142,22.0004 37.69627,68.98726 47.49203,160.79422 50,251.37497 2.456,88.70347 -11.37982,160.95715 -48.57143,233.44615 -19.9816,38.94551 -92.5559,56.5366 -137.14285,55.7409 -43.3653,-0.77392 -127.37732,-18.18884 -144.2857,-57.19676 C 195.64827,645.916 187.77895,576.54657 188.57143,488.94845 189.37946,399.63082 204.2989,209.55245 280,227.65915 z"
         style="fill:#a05a2c;fill-opacity:1;stroke:#000000;stroke-width:3.95062637;stroke-miterlimit:4;stroke-opacity:1;stroke-dasharray:none" />
      <path
         transform="matrix(0.99534341,0,0,0.96223031,-9.0149767,5.172415)"
         d="m 527.14285,258.07648 c 0,29.19219 -63.63952,52.85714 -142.14285,52.85714 -78.50333,0 -142.14285,-23.66495 -142.14285,-52.85714 0,-29.1922 63.63952,-52.85715 142.14285,-52.85715 78.50333,0 142.14285,23.66495 142.14285,52.85715 z"
         sodipodi:ry="52.857143"
         sodipodi:rx="142.14285"
         sodipodi:cy="258.07648"
         sodipodi:cx="385"
         id="path3756"
         style="fill:#a05a2c;fill-opacity:1;stroke:#000000;stroke-width:4;stroke-linecap:round;stroke-linejoin:round;stroke-miterlimit:4;stroke-opacity:1;stroke-dasharray:none"
         sodipodi:type="arc" />
      <path
         inkscape:connector-curvature="0"
         id="path3818"
         d="m 281.42857,293.79075 -17.14286,75.71429 -1.42857,280 22.85715,117.14286"
         style="fill:none;stroke:#000000;stroke-width:4;stroke-linecap:butt;stroke-linejoin:miter;stroke-miterlimit:4;stroke-opacity:1;stroke-dasharray:none" />
      <path
         inkscape:connector-curvature="0"
         id="path3820"
         d="m 384.28571,305.21933 -7.14285,474.28571"
         style="fill:none;stroke:#000000;stroke-width:4;stroke-linecap:butt;stroke-linejoin:miter;stroke-miterlimit:4;stroke-opacity:1;stroke-dasharray:none" />
      <path
         style="fill:none;stroke:#000000;stroke-width:4;stroke-linecap:butt;stroke-linejoin:miter;stroke-miterlimit:4;stroke-opacity:1;stroke-dasharray:none"
         d="m 470,286.64789 17.14286,75.71429 1.42857,280 -22.85715,117.14286"
         id="path3822"
         inkscape:connector-curvature="0" />
      <path
         style="opacity:0.6017699;fill:#28170b;fill-opacity:1;stroke:none"
         d="m 234.44768,262.46257 c 19.70849,6.71773 28.3789,28.74149 44.68663,28.40636 15.5162,-0.31887 19.86511,25.2805 17.59423,57.60121 -5.10959,72.72323 -4.35647,117.72236 12.60764,185.18415 21.66872,86.17075 34.62434,195.43541 97.95666,222.79772 60.6785,26.21574 -21.68637,16.40842 -38.4585,21.83391 C 344.56175,786.13767 228.51902,752.80054 221.84005,716.52677 208.27077,642.83151 190.909,591.14131 188.33249,509.72328 185.79453,429.52325 200.69211,250.95682 234.44768,262.46257 z"
         id="path3824"
         inkscape:connector-curvature="0"
         sodipodi:nodetypes="sssssssss" />
      <path
         inkscape:connector-curvature="0"
         id="path3830"
         d="m 446.89149,325.45641 8.48528,128.69344"
         style="fill:none;stroke:#000000;stroke-width:4;stroke-linecap:butt;stroke-linejoin:miter;stroke-miterlimit:4;stroke-opacity:1;stroke-dasharray:none" />
      <g
         id="g3796">
        <path
           style="fill:#6c5d53;fill-opacity:1;stroke:#000000;stroke-width:4.0256052;stroke-linecap:butt;stroke-linejoin:miter;stroke-miterlimit:4;stroke-opacity:1;stroke-dasharray:none"
           d="m 195.74061,348.07647 -7.16918,61.42857 c 0,0 91.36049,28.8333 134.49011,32.85714 36.01577,3.36014 72.81739,4.33821 108.51896,-1.42857 41.99686,-6.78364 125.85567,-38.57143 125.85567,-38.57143 l -9.98963,-57.12849 c 0,0 -73.52453,32.53893 -114.41912,38.55707 -36.73181,5.40554 -74.57256,4.63081 -111.4128,0 -42.00787,-5.28038 -125.87401,-35.71429 -125.87401,-35.71429 z"
           id="path3758"
           inkscape:connector-curvature="0"
           sodipodi:nodetypes="ccssccssc" />
        <path
           style="fill:#483e37;fill-opacity:1;stroke:none"
           d="m 200.5,356.15625 -2.71875,48.90625 c 39.82117,11.89306 79.9859,23.89885 121.375,29.375 50.19678,4.75842 102.17191,5.11864 150.46875,-9.5625 27.57457,-7.62409 54.62822,-16.69088 81.46875,-26.3125 l -0.21875,-7.15625 c -23.66378,11.76024 -64.14678,19.53125 -110.15625,19.53125 -55.0928,0 -102.2881,-11.13587 -122.125,-26.9375 -6.51928,-0.87963 -13.01539,-1.86548 -19.46875,-3.03125 -33.31248,-6.58344 -66.09372,-15.45889 -98.625,-24.8125 z"
           id="path3766"
           inkscape:connector-curvature="0" />
        <path
           sodipodi:type="arc"
           style="fill:#ac9d93;fill-opacity:1;stroke:#000000;stroke-width:4;stroke-miterlimit:4;stroke-opacity:1;stroke-dasharray:none"
           id="path3778"
           sodipodi:cx="263.57144"
           sodipodi:cy="399.50504"
           sodipodi:rx="15"
           sodipodi:ry="14.285714"
           d="m 278.57144,399.50504 c 0,7.88978 -6.71573,14.28571 -15,14.28571 -8.28427,0 -15,-6.39593 -15,-14.28571 0,-7.88979 6.71573,-14.28572 15,-14.28572 8.28427,0 15,6.39593 15,14.28572 z" />
        <path
           d="m 278.57144,399.50504 c 0,7.88978 -6.71573,14.28571 -15,14.28571 -8.28427,0 -15,-6.39593 -15,-14.28571 0,-7.88979 6.71573,-14.28572 15,-14.28572 8.28427,0 15,6.39593 15,14.28572 z"
           sodipodi:ry="14.285714"
           sodipodi:rx="15"
           sodipodi:cy="399.50504"
           sodipodi:cx="263.57144"
           id="path3780"
           style="fill:#ac9d93;fill-opacity:1;stroke:#000000;stroke-width:4;stroke-miterlimit:4;stroke-opacity:1;stroke-dasharray:none"
           sodipodi:type="arc"
           transform="translate(114.28571,12.857143)" />
        <path
           transform="translate(241.42857,-9.9999999)"
           sodipodi:type="arc"
           style="fill:#ac9d93;fill-opacity:1;stroke:#000000;stroke-width:4;stroke-miterlimit:4;stroke-opacity:1;stroke-dasharray:none"
           id="path3782"
           sodipodi:cx="263.57144"
           sodipodi:cy="399.50504"
           sodipodi:rx="15"
           sodipodi:ry="14.285714"
           d="m 278.57144,399.50504 c 0,7.88978 -6.71573,14.28571 -15,14.28571 -8.28427,0 -15,-6.39593 -15,-14.28571 0,-7.88979 6.71573,-14.28572 15,-14.28572 8.28427,0 15,6.39593 15,14.28572 z" />
        <path
           sodipodi:nodetypes="ccccccsccc"
           inkscape:connector-curvature="0"
           id="path3784"
           d="m 193.35714,353.29911 -4.14732,47.47768 c 39.82117,11.89306 88.55733,28.18456 129.94643,33.66071 50.19678,4.75842 102.17191,5.11864 150.46875,-9.5625 27.57457,-7.62409 54.62822,-16.69088 81.46875,-26.3125 l -0.21875,-7.15625 c -23.66378,11.76024 -64.14678,19.53125 -110.15625,19.53125 -55.0928,0 -102.2881,-11.13587 -122.125,-26.9375 -6.51928,-0.87963 -13.01539,-1.86548 -19.46875,-3.03125 -33.31248,-6.58344 -73.23658,-18.31603 -105.76786,-27.66964 z"
           style="opacity:0.3982301;fill:#483e37;fill-opacity:1;stroke:none" />
      </g>
      <path
         transform="matrix(1.0948456,0,0,1.1724328,-36.750661,-41.230139)"
         d="m 487.14286,253.07646 c 0,17.75201 -48.92888,32.14286 -109.28571,32.14286 -60.35684,0 -109.28572,-14.39085 -109.28572,-32.14286 0,-17.75201 48.92888,-32.14285 109.28572,-32.14285 60.35683,0 109.28571,14.39084 109.28571,32.14285 z"
         sodipodi:ry="32.142857"
         sodipodi:rx="109.28571"
         sodipodi:cy="253.07646"
         sodipodi:cx="377.85715"
         id="path3786"
         style="fill:#784421;fill-opacity:1;stroke:#000000;stroke-width:4;stroke-linecap:round;stroke-linejoin:round;stroke-miterlimit:4;stroke-opacity:1;stroke-dasharray:none"
         sodipodi:type="arc" />
      <path
         sodipodi:type="arc"
         style="fill:#502d16;fill-opacity:1;stroke:none"
         id="path3788"
         sodipodi:cx="377.85715"
         sodipodi:cy="253.07646"
         sodipodi:rx="109.28571"
         sodipodi:ry="32.142857"
         d="m 487.14286,253.07646 c 0,17.75201 -48.92888,32.14286 -109.28571,32.14286 -60.35684,0 -109.28572,-14.39085 -109.28572,-32.14286 0,-17.75201 48.92888,-32.14285 109.28572,-32.14285 60.35683,0 109.28571,14.39084 109.28571,32.14285 z"
         transform="matrix(1.0229502,0,0,0.72912279,-8.8701747,81.394437)" />
      <path
         transform="matrix(1.2637363,0,0,0.66666672,-106.12245,96.977875)"
         d="m 445.71429,275.93362 c 0,8.28428 -29.10149,15 -65,15 -35.8985,0 -65,-6.71572 -65,-15 0,-8.28427 29.1015,-15 65,-15 35.89851,0 65,6.71573 65,15 z"
         sodipodi:ry="15"
         sodipodi:rx="65"
         sodipodi:cy="275.93362"
         sodipodi:cx="380.71429"
         id="path3794"
         style="fill:#28170b;fill-opacity:1;stroke:none"
         sodipodi:type="arc" />
      <path
         inkscape:connector-curvature="0"
         id="path3838"
         d="m 444.06306,694.56615 c 0.4714,-1.88562 0.94281,-3.77123 1.41421,-5.65685 0.47141,-1.41422 1.05266,-2.79644 1.41422,-4.24264 0.33515,-1.34063 0,-8.5733 0,-9.8995 0,-4.71404 0,-9.42809 0,-14.14213 0,-14.61354 0,-29.22708 0,-43.84062 0,-4.71405 0,-9.42809 0,-14.14214 0,-1.13849 -0.29588,-4.76922 0,-5.65685 0.4714,-0.94281 0.9428,-1.88562 1.41421,-2.82843 0,-0.47141 -0.14907,-0.967 0,-1.41422 0.66667,-2 2.31712,-3.61161 2.82843,-5.65685 0.34299,-1.37199 -0.44722,-2.901 0,-4.24264 0.33333,-1 1.15855,-1.80581 1.41421,-2.82843 0.31565,-1.26258 0,-5.43407 0,-7.07106"
         style="fill:none;stroke:#000000;stroke-width:4;stroke-linecap:butt;stroke-linejoin:miter;stroke-miterlimit:4;stroke-opacity:1;stroke-dasharray:none" />
      <path
         inkscape:connector-curvature="0"
         id="path3870"
         d="m 520.43059,524.86052 c 0,9.42809 0,18.85618 0,28.28428 0,14.61354 0,29.22708 0,43.84062 0,4.71404 0,9.42809 0,14.14213 0,0.73952 0.18593,5.285 0,5.65686 -0.29814,0.59628 -1.11607,0.81792 -1.41421,1.41421 -0.42164,0.84327 0.22866,1.91377 0,2.82843 -0.36155,1.4462 -1.12186,2.78087 -1.41422,4.24264 -0.31899,1.59496 0,5.22031 0,7.07106 0,0.94281 0.29815,1.934 0,2.82843 -0.21081,0.63246 -1.11607,0.81793 -1.41421,1.41422 -0.44443,0.88886 0.44443,4.76798 0,5.65685 -0.29814,0.59628 -1.11607,0.81793 -1.41421,1.41421 -0.21082,0.42164 0.0667,0.94755 0,1.41422 -0.40552,2.83862 -1.0087,5.64666 -1.41422,8.48528 -0.31427,2.19989 0.94281,2.82843 0,5.65685 -0.14907,0.44722 -0.94281,0 -1.41421,0 0,0.94281 0,1.88562 0,2.82843 0,0.6369 0.2152,3.81225 0,4.24264 -1.74755,3.49509 -1.41421,-0.48816 -1.41421,2.82843 0,0.94281 0,3.77123 0,2.82842 0,-1.41421 -0.27735,-2.85589 0,-4.24264 0.20672,-1.03362 0.9428,-1.88561 1.41421,-2.82842 0.4714,-2.35703 1.07428,-4.69153 1.41421,-7.07107 0.20069,-1.40483 -0.4247,-7.63587 0,-8.48528 0.21082,-0.42164 0.94281,0 1.41422,0 0.4714,0 0.94281,0 1.41421,0"
         style="fill:none;stroke:#000000;stroke-width:4;stroke-linecap:butt;stroke-linejoin:miter;stroke-miterlimit:4;stroke-opacity:1;stroke-dasharray:none" />
      <g
         transform="matrix(1.0119031,0,0,0.94343508,-5.1632402,242.4322)"
         id="g3804">
        <path
           sodipodi:nodetypes="ccssccssc"
           inkscape:connector-curvature="0"
           id="path3806"
           d="m 192.9794,352.36218 6.94051,59.09171 c 0,0 80.01201,26.88445 123.14163,30.90829 36.01577,3.36014 72.81739,4.33821 108.51896,-1.42857 41.99686,-6.78364 121.54124,-38.57143 121.54124,-38.57143 l 7.02368,-58.82838 c 0,0 -86.22341,34.23882 -127.118,40.25696 -36.73181,5.40554 -74.57256,4.63081 -111.4128,0 C 279.60675,378.51038 192.9794,352.36218 192.9794,352.36218 z"
           style="fill:#6c5d53;fill-opacity:1;stroke:#000000;stroke-width:4.0256052;stroke-linecap:butt;stroke-linejoin:miter;stroke-miterlimit:4;stroke-opacity:1;stroke-dasharray:none" />
        <path
           inkscape:connector-curvature="0"
           id="path3808"
           d="m 196.82009,358.75471 4.64107,46.30779 c 39.82117,11.89306 76.30599,23.89885 117.69509,29.375 50.19678,4.75842 102.17191,5.11864 150.46875,-9.5625 27.57457,-7.62409 54.62822,-16.69088 81.46875,-26.3125 l -0.21875,-7.15625 c -23.66378,11.76024 -64.14678,19.53125 -110.15625,19.53125 -55.0928,0 -102.2881,-11.13587 -122.125,-26.9375 -6.51928,-0.87963 -13.01539,-1.86548 -19.46875,-3.03125 -33.31248,-6.58344 -69.77363,-12.86043 -102.30491,-22.21404 z"
           style="fill:#483e37;fill-opacity:1;stroke:none"
           sodipodi:nodetypes="ccccccsccc" />
        <path
           d="m 278.57144,399.50504 c 0,7.88978 -6.71573,14.28571 -15,14.28571 -8.28427,0 -15,-6.39593 -15,-14.28571 0,-7.88979 6.71573,-14.28572 15,-14.28572 8.28427,0 15,6.39593 15,14.28572 z"
           sodipodi:ry="14.285714"
           sodipodi:rx="15"
           sodipodi:cy="399.50504"
           sodipodi:cx="263.57144"
           id="path3810"
           style="fill:#ac9d93;fill-opacity:1;stroke:#000000;stroke-width:4;stroke-miterlimit:4;stroke-opacity:1;stroke-dasharray:none"
           sodipodi:type="arc" />
        <path
           transform="translate(114.28571,12.857143)"
           sodipodi:type="arc"
           style="fill:#ac9d93;fill-opacity:1;stroke:#000000;stroke-width:4;stroke-miterlimit:4;stroke-opacity:1;stroke-dasharray:none"
           id="path3812"
           sodipodi:cx="263.57144"
           sodipodi:cy="399.50504"
           sodipodi:rx="15"
           sodipodi:ry="14.285714"
           d="m 278.57144,399.50504 c 0,7.88978 -6.71573,14.28571 -15,14.28571 -8.28427,0 -15,-6.39593 -15,-14.28571 0,-7.88979 6.71573,-14.28572 15,-14.28572 8.28427,0 15,6.39593 15,14.28572 z" />
        <path
           d="m 278.57144,399.50504 c 0,7.88978 -6.71573,14.28571 -15,14.28571 -8.28427,0 -15,-6.39593 -15,-14.28571 0,-7.88979 6.71573,-14.28572 15,-14.28572 8.28427,0 15,6.39593 15,14.28572 z"
           sodipodi:ry="14.285714"
           sodipodi:rx="15"
           sodipodi:cy="399.50504"
           sodipodi:cx="263.57144"
           id="path3814"
           style="fill:#ac9d93;fill-opacity:1;stroke:#000000;stroke-width:4;stroke-miterlimit:4;stroke-opacity:1;stroke-dasharray:none"
           sodipodi:type="arc"
           transform="translate(241.42857,-9.9999999)" />
        <path
           inkscape:connector-curvature="0"
           style="opacity:0.3982301;fill:#483e37;fill-opacity:1;stroke:none"
           d="m 200.5,356.15625 1.48687,51.50471 c 39.82117,11.89306 75.78028,21.30039 117.16938,26.77654 50.19678,4.75842 102.17191,5.11864 150.46875,-9.5625 27.57457,-7.62409 54.62822,-16.69088 81.46875,-26.3125 l -0.21875,-7.15625 c -23.66378,11.76024 -64.14678,19.53125 -110.15625,19.53125 -55.0928,0 -102.2881,-11.13587 -122.125,-26.9375 -6.51928,-0.87963 -13.01539,-1.86548 -19.46875,-3.03125 -33.31248,-6.58344 -66.09372,-15.45889 -98.625,-24.8125 z"
           id="path3816"
           sodipodi:nodetypes="ccccccsccc" />
      </g>
      <path
         inkscape:connector-curvature="0"
         id="path3826"
         d="m 321.42857,206.6479 c 3.53407,6.23279 2.85714,5.56451 2.85714,11.42857"
         style="fill:none;stroke:#000000;stroke-width:4;stroke-linecap:butt;stroke-linejoin:miter;stroke-miterlimit:4;stroke-opacity:1;stroke-dasharray:none" />
      <path
         inkscape:connector-curvature="0"
         id="path3828"
         d="m 333.7544,315.55692 c 0,3.77123 0,7.54247 0,11.31371 0,0.4714 0.21082,0.99257 0,1.41421 -0.29814,0.59628 -1.11607,0.81793 -1.41421,1.41421 -0.21082,0.42164 0.33333,1.08088 0,1.41422 -0.33334,0.33333 -1.08088,-0.33334 -1.41422,0 -0.3403,0.3403 0.34031,5.31655 0,5.65685 -0.33333,0.33333 -1.08088,-0.33333 -1.41421,0 -0.0455,0.0455 0,3.89966 0,4.24264"
         style="fill:none;stroke:#000000;stroke-width:4;stroke-linecap:butt;stroke-linejoin:miter;stroke-miterlimit:4;stroke-opacity:1;stroke-dasharray:none" />
      <path
         inkscape:connector-curvature="0"
         id="path3832"
         d="m 455.37677,472.53462 c -4.21637,1.36167 1.05409,4.96288 0,7.07107 -0.29815,0.59628 -1.11607,0.81793 -1.41422,1.41421 -0.18282,0.36565 0,7.48289 0,8.48528"
         style="fill:none;stroke:#000000;stroke-width:4;stroke-linecap:butt;stroke-linejoin:miter;stroke-miterlimit:4;stroke-opacity:1;stroke-dasharray:none" />
      <path
         inkscape:connector-curvature="0"
         id="path3836"
         d="m 214.96046,490.9194 c 8.53648,-0.72271 -0.28546,5.37139 1.41421,7.07107 0.33334,0.33333 1.08089,-0.33334 1.41422,0 0.33333,0.33333 -0.33333,1.08088 0,1.41421 0.4784,0.4784 2.35002,-0.4784 2.82843,0 0.33333,0.33333 0.4714,1.41421 0,1.41421 -0.47141,0 0,-1.88561 0,-1.41421 0,3.29983 0,6.59966 0,9.89949 0,3.77124 -0.47141,-0.4714 1.41421,1.41422 0.33333,0.33333 0.4714,1.41421 0,1.41421 -0.47141,0 0,-0.94281 0,-1.41421"
         style="fill:none;stroke:#000000;stroke-width:4;stroke-linecap:butt;stroke-linejoin:miter;stroke-miterlimit:4;stroke-opacity:1;stroke-dasharray:none" />
      <path
         inkscape:connector-curvature="0"
         id="path3840"
         d="m 316.78384,258.98837 c 1.61955,1.88948 8.37319,8.14902 9.89949,12.72793 0.14907,0.44721 -0.14907,0.967 0,1.41421 0.56134,1.68401 2.26709,3.97285 2.82843,5.65685 0.14907,0.44722 -0.14907,0.967 0,1.41422 3.41458,10.24374 -0.40772,-2.22966 2.82843,4.24264 0.42163,0.84327 -0.66667,2.16176 0,2.82843 1.88562,1.88561 1.41421,-2.35703 1.41421,1.41421"
         style="fill:none;stroke:#000000;stroke-width:4;stroke-linecap:butt;stroke-linejoin:miter;stroke-miterlimit:4;stroke-opacity:1;stroke-dasharray:none" />
      <path
         inkscape:connector-curvature="0"
         id="path3842"
         d="m 241.83052,688.9093 c 0,2.35702 0,4.71404 0,7.07106 0,0.47141 0.21082,0.99258 0,1.41422 -0.84853,1.69705 -3.39411,2.54558 -4.24264,4.24264 -0.42164,0.84327 0.94281,2.82843 0,2.82843 -0.47141,0 0.4714,-1.41422 0,-1.41422 -0.66667,0 -0.94281,0.94281 -1.41422,1.41422 -0.4714,0.4714 -1.11607,0.81793 -1.41421,1.41421 -0.97535,1.95071 1.71269,1.26498 -1.41421,2.82843 -0.42164,0.21082 -1.08088,-0.33334 -1.41422,0 -1.88561,1.88562 2.35703,1.41421 -1.41421,1.41421"
         style="fill:none;stroke:#000000;stroke-width:4;stroke-linecap:butt;stroke-linejoin:miter;stroke-miterlimit:4;stroke-opacity:1;stroke-dasharray:none" />
      <path
         inkscape:connector-curvature="0"
         id="path3844"
         d="m 330.92597,698.80879 c 3.77124,0 7.54248,0 11.31371,0 1.41422,0 2.85589,-0.27735 4.24264,0 1.03363,0.20673 1.84973,1.02274 2.82843,1.41422 3.22474,1.28989 4.14423,1.41421 7.07107,1.41421"
         style="fill:none;stroke:#000000;stroke-width:4;stroke-linecap:butt;stroke-linejoin:miter;stroke-miterlimit:4;stroke-opacity:1;stroke-dasharray:none" />
      <path
         inkscape:connector-curvature="0"
         id="path3846"
         d="m 304.05592,389.09602 c 0,6.59967 0,13.19933 0,19.79899"
         style="fill:none;stroke:#000000;stroke-width:4;stroke-linecap:butt;stroke-linejoin:miter;stroke-miterlimit:4;stroke-opacity:1;stroke-dasharray:none" />
      <path
         inkscape:connector-curvature="0"
         id="path3850"
         d="m 304.05592,420.20872 c -0.47141,1.88562 -1.03304,3.75095 -1.41422,5.65685 -0.25456,1.2728 0,2.94157 0,4.24265 0,0.4714 0,0.9428 0,1.41421 0,0.4714 0.47141,1.41421 0,1.41421 -0.4714,0 0,-1.88562 0,-1.41421 0,1.41421 0,2.82843 0,4.24264"
         style="fill:none;stroke:#000000;stroke-width:4;stroke-linecap:butt;stroke-linejoin:miter;stroke-miterlimit:4;stroke-opacity:1;stroke-dasharray:none" />
      <path
         inkscape:connector-curvature="0"
         id="path3852"
         d="m 352.13918,476.77726 c 0,7.54248 0,15.08495 0,22.62742"
         style="fill:none;stroke:#000000;stroke-width:4;stroke-linecap:butt;stroke-linejoin:miter;stroke-miterlimit:4;stroke-opacity:1;stroke-dasharray:none" />
      <path
         inkscape:connector-curvature="0"
         id="path3854"
         d="m 287.08535,506.47575 c 2.44311,-0.24506 0.95438,8.97982 1.41422,9.89949 0.29814,0.59629 1.11607,0.81793 1.41421,1.41422 0.2152,0.43039 0,3.60573 0,4.24264 0,3.29983 0,6.59966 0,9.89949 0,1.18511 0.30053,6.47001 0,7.07107 -0.21082,0.42164 -1.20339,-0.42164 -1.41421,0 -0.42164,0.84327 0,1.88562 0,2.82843 0,2.35702 0,4.71404 0,7.07106 0,7.06269 0,12.29361 0,16.97057"
         style="fill:none;stroke:#000000;stroke-width:4;stroke-linecap:butt;stroke-linejoin:miter;stroke-miterlimit:4;stroke-opacity:1;stroke-dasharray:none" />
      <path
         inkscape:connector-curvature="0"
         id="path3856"
         d="m 207.88939,365.05439 c 1.41422,1.88562 2.82843,3.77124 4.24264,5.65686 0,0.9428 -0.42163,1.98515 0,2.82842 0.21082,0.42164 1.08088,-0.33333 1.41422,0 0.66666,0.66667 -0.66667,2.16176 0,2.82843 0.33333,0.33333 1.08088,-0.33333 1.41421,0 0.33333,0.33333 -0.21082,0.99258 0,1.41421 0.29814,0.59629 0.94281,0.94281 1.41421,1.41422"
         style="fill:none;stroke:#000000;stroke-width:4;stroke-linecap:butt;stroke-linejoin:miter;stroke-miterlimit:4;stroke-opacity:1;stroke-dasharray:none" />
      <path
         inkscape:connector-curvature="0"
         id="path3858"
         d="m 526.08745,601.22806 c 4.71404,0 9.42809,0 14.14213,0 0.94281,0 1.90393,0.1849 2.82843,0 1.46176,-0.29236 2.90931,-0.74755 4.24264,-1.41422 0.59628,-0.29814 0.94281,-0.94281 1.41421,-1.41421"
         style="fill:none;stroke:#000000;stroke-width:4;stroke-linecap:butt;stroke-linejoin:miter;stroke-miterlimit:4;stroke-opacity:1;stroke-dasharray:none" />
      <path
         inkscape:connector-curvature="0"
         id="path3860"
         d="m 390.32294,544.65951 c -3.10395,-14.24373 5.12742,-2.29899 7.07107,-4.24264 0.33333,-0.33333 -0.33333,-1.08088 0,-1.41421 0.47059,-0.47059 2.35784,0.47059 2.82843,0 0.33333,-0.33333 0,-0.94281 0,-1.41421 0,-0.47141 0,-0.94281 0,-1.41422"
         style="fill:none;stroke:#000000;stroke-width:4;stroke-linecap:butt;stroke-linejoin:miter;stroke-miterlimit:4;stroke-opacity:1;stroke-dasharray:none" />
      <path
         inkscape:connector-curvature="0"
         id="path3862"
         d="m 521.8448,326.87063 c 2.52983,2.23121 -1.26491,5.95545 0,8.48528 1.88562,3.77123 1.41422,-4.24264 1.41422,1.41421 0,0.34298 -0.0455,4.19716 0,4.24264 0.33333,0.33333 1.08088,-0.33333 1.41421,0 0.33333,0.33333 0,0.94281 0,1.41421 0,0.34299 -0.0455,4.19716 0,4.24265 0.33333,0.33333 0.94281,0 1.41422,0"
         style="fill:none;stroke:#000000;stroke-width:4;stroke-linecap:butt;stroke-linejoin:miter;stroke-miterlimit:4;stroke-opacity:1;stroke-dasharray:none" />
      <path
         inkscape:connector-curvature="0"
         id="path3864"
         d="m 496.38896,239.18938 c 14.09476,0 1.57597,-1.33333 7.07107,1.41422 0.42164,0.21082 0.94281,0 1.41421,0 0.94281,0 1.88562,0 2.82843,0"
         style="fill:none;stroke:#000000;stroke-width:4;stroke-linecap:butt;stroke-linejoin:miter;stroke-miterlimit:4;stroke-opacity:1;stroke-dasharray:none" />
      <path
         inkscape:connector-curvature="0"
         id="path3866"
         d="m 288.49957,629.51233 c 10.74926,0 1.71282,0.84327 8.48528,-1.41422 0.97274,-0.32424 3.40822,0.41721 4.24264,0 3.49509,-1.74754 -0.48816,-1.41421 2.82843,-1.41421"
         style="fill:none;stroke:#000000;stroke-width:4;stroke-linecap:butt;stroke-linejoin:miter;stroke-miterlimit:4;stroke-opacity:1;stroke-dasharray:none" />
      <path
         inkscape:connector-curvature="0"
         id="path3868"
         d="m 527.50166,417.38029 c 1.52854,6.11419 1.41421,3.71321 1.41421,7.07107 0,0.47141 -0.33333,1.08088 0,1.41421 0.33334,0.33334 1.08088,-0.33333 1.41422,0 0.33333,0.33334 0,0.94281 0,1.41422 0,2.82843 0,5.65685 0,8.48528 0,0.4714 0.21081,0.99258 0,1.41421 -0.29815,0.59629 -1.11608,0.81793 -1.41422,1.41422 -0.18282,0.36564 0,7.48288 0,8.48528"
         style="fill:none;stroke:#000000;stroke-width:4;stroke-linecap:butt;stroke-linejoin:miter;stroke-miterlimit:4;stroke-opacity:1;stroke-dasharray:none" />
    </g>
  </g>
</svg>
